PathFileType	4	(X/Y/Z)	D:\TRACE\spotREDO_2-26-24\spot_justBody_Motion_3_4-platform.trc
DataRate	CameraRate	NumFrames	NumMarkers	Units	OrigDataRate	OrigDataStartFrame	OrigNumFrames
100.00	100.00	      24	5	mm	100.00	3501	      7000
Frame#	Time	Left_Front			Right_Front			Left_Aft			Right_Aft			Post			
		X1	Y1	Z1	X2	Y2	Z2	X3	Y3	Z3	X4	Y4	Z4	X5	Y5	Z5	

3501	35.000	-710.09723	23.86327	-567.89301	704.76044	28.99447	-483.52060	-781.08557	-24.68497	649.88556	789.04712	-17.50028	653.80603	-0.74193	669.37317	-944.83417	
3502	35.010	-710.91058	23.81958	-567.84436	704.15649	28.71110	-483.37592	-781.90613	-24.63344	649.92462	788.40186	-17.36681	653.67249	-1.20781	669.43683	-944.87793	
3503	35.020	-711.46893	23.90371	-567.85431	703.55005	28.64273	-483.25894	-782.52393	-24.56285	649.98523	787.83081	-17.31543	653.69757	-2.15827	669.51837	-944.88220	
3504	35.030	-712.24945	23.96340	-567.85571	702.68549	28.67478	-483.26447	-783.24628	-24.74769	650.05573	786.83917	-17.55744	653.71912	-2.80763	669.36377	-945.04041	
3505	35.040	-712.76440	23.91850	-567.91351	701.99225	28.67296	-483.24319	-784.02289	-24.69250	650.00720	786.06531	-17.63897	653.62445	-3.45942	669.24561	-944.93610	
3506	35.050	-713.78680	23.82146	-567.80902	701.34985	28.80915	-483.40646	-784.89496	-24.44229	649.99713	785.37268	-17.40385	653.44763	-4.33253	669.21222	-945.03076	
3507	35.060	-714.50885	23.72805	-567.77490	700.64758	28.85013	-483.38940	-785.43756	-24.26432	649.89178	784.98767	-17.71027	653.33063	-4.94559	669.25165	-944.98004	
3508	35.070	-715.04236	23.62100	-567.87640	699.71350	28.77126	-483.48132	-786.17810	-24.50669	649.75952	784.03644	-17.58427	653.47076	-5.60728	669.20935	-944.86584	
3509	35.080	-715.66663	23.60363	-567.96216	699.02142	28.64358	-483.52655	-786.86810	-24.41633	649.88269	783.32800	-17.30808	653.52173	-6.36987	669.12634	-944.90472	
3510	35.090	-716.31458	23.46399	-567.97150	698.54340	28.36354	-483.52606	-787.66467	-24.22676	649.84143	782.84467	-17.14476	653.59656	-7.00677	668.92126	-944.88440	
3511	35.100	-717.17664	23.31692	-567.92950	697.66040	28.24645	-483.66895	-788.22821	-24.37377	649.55933	782.11090	-17.16575	653.55945	-7.80141	668.67175	-944.92896	
3512	35.110	-717.99072	23.02957	-568.06665	697.15668	28.24384	-483.43417	-788.81750	-24.24723	649.73694	781.38239	-17.08333	653.46906	-8.71984	668.44281	-945.42517	
3513	35.120	-718.39258	22.95133	-568.11664	696.45471	28.20984	-483.49847	-789.56519	-24.01420	649.82727	780.73755	-16.93493	653.48077	-9.03882	668.31445	-945.55981	
3514	35.130	-719.16333	23.03214	-568.15454	695.81384	28.04904	-483.53058	-790.48096	-23.67912	649.78180	780.19647	-16.99933	653.34558	-9.76948	668.00659	-945.84521	
3515	35.140	-719.84552	22.76073	-568.16058	695.22034	27.67178	-483.50946	-791.01642	-23.66844	649.90265	779.20197	-16.85204	653.32648	-10.30151	667.65009	-946.08160	
3516	35.150	-720.34955	22.51478	-568.17065	694.46057	27.47792	-483.58600	-791.53290	-23.53837	649.67883	778.71985	-16.72520	653.11163	-11.06381	667.38129	-946.47852	
3517	35.160	-721.31067	22.49115	-568.40320	693.70532	27.39580	-483.79623	-792.25256	-23.14524	649.65955	777.96387	-16.20213	653.39636	-11.58496	667.18103	-946.69043	
3518	35.170	-721.75684	22.39568	-568.43188	693.05908	27.28204	-483.76520	-792.87244	-23.11874	649.71704	777.39838	-15.95746	653.30133	-12.31519	666.91040	-947.14563	
3519	35.180	-722.27277	22.14782	-568.37067	692.44537	27.12155	-483.78546	-793.62952	-22.89380	649.59900	776.94165	-15.86599	653.30713	-12.96892	666.50269	-947.26953	
3520	35.190	-723.07422	21.78496	-568.39886	692.13843	27.01585	-483.79666	-794.28998	-22.58480	649.45685	776.23102	-15.60646	653.31610	-13.52077	666.20868	-947.45319	
3521	35.200	-723.46783	21.65935	-568.40454	691.66168	26.75718	-483.89352	-794.81427	-22.46692	649.35431	775.60742	-15.38193	653.22607	-13.96058	665.94727	-947.68713	
3522	35.210	-723.93689	21.49560	-568.55261	690.75970	26.40843	-483.96805	-795.21790	-22.32930	649.33228	775.13959	-15.15952	653.18829	-14.66798	665.60583	-947.92200	
3523	35.220	-724.87128	21.27081	-568.65082	690.21741	26.19175	-483.92731	-796.01160	-22.13198	649.29095	774.45361	-14.92880	653.09021	-15.24075	665.17981	-948.03271	
3524	35.230	-725.39154	21.13980	-568.66711	689.71124	26.08351	-484.05319	-796.35962	-21.76614	649.32849	773.73877	-14.67009	652.90326	-16.00889	664.73291	-948.37732	
